<svg width="13" height="15" viewBox="0 0 13 15" fill="none" xmlns="http://www.w3.org/2000/svg">
<path fill-rule="evenodd" clip-rule="evenodd" d="M5 0.500122C5 0.776264 5.22386 1.00012 5.5 1.00012H2H0V3.00012V4.00012V6.00012H1V11.0001C1 13.2093 2.79086 15.0001 5 15.0001H8C10.2091 15.0001 12 13.2093 12 11.0001V6.00012H13V4.00012V3.00012V1.00012H11H7.5C7.77614 1.00012 8 0.776264 8 0.500122C8 0.22398 7.77614 0.00012207 7.5 0.00012207H5.5C5.22386 0.00012207 5 0.22398 5 0.500122ZM2 4.00012V3.00012H11V4.00012H10H3H2ZM3 6.00012H10V11.0001C10 12.1047 9.10457 13.0001 8 13.0001H5C3.89543 13.0001 3 12.1047 3 11.0001V6.00012Z" fill="#132639"/>
</svg>
