<svg width="243" height="30" viewBox="0 0 243 30" fill="none" xmlns="http://www.w3.org/2000/svg">
<path d="M54.7021 29.4266V5.38578H61.9718V8.99385H62.1195C62.667 7.68412 63.2554 6.89966 64.4844 6.07849C67.2105 4.24349 70.2274 4.6082 71.9404 4.93162C74.4802 5.39037 76.2772 6.3331 77.6607 7.91349C79.0442 9.49389 79.8961 11.1247 79.8961 13.9965V29.4266H72.4447V15.6641C72.4447 14.2878 72.0857 13.2442 71.5087 12.4528C70.391 10.8977 68.6099 10.4894 65.8475 10.8977C64.6798 11.0697 63.9187 11.7234 63.2258 12.5629C62.5329 13.4024 62.1831 14.492 62.1831 15.8292V29.4289L54.7021 29.4266Z" fill="#00B19F"/>
<path d="M101.45 21.832H108.186C107.821 24.3184 106.421 26.1603 104.458 27.6397C102.495 29.1192 98.4336 30 95.4439 30C91.7955 30 87.4359 28.9357 85.3754 26.7222C83.3149 24.5088 81.9678 21.4122 81.9678 17.5266C81.9678 13.641 83.1037 10.666 85.6026 8.14284C88.1016 5.61971 91.6978 4.81689 95.1872 4.81689C98.6403 4.81689 102.525 5.20454 105.135 8.14742C107.123 10.3884 108.316 13.235 108.316 16.9141V19.1207H89.2079V19.607C89.2079 21.0498 89.6077 22.2357 90.4597 23.1165C91.5092 24.2037 94.2013 24.4629 95.5507 24.4629C96.5457 24.4629 98.7789 24.4331 99.9557 23.7564C100.678 23.3319 101.212 22.6453 101.45 21.8365M95.3167 10.3678C94.1808 10.3678 91.8772 10.3334 90.6255 11.572C89.4623 12.7189 89.4078 13.407 89.3101 14.6502H101.28C101.21 13.3703 101.053 12.4941 100.037 11.5491C98.9243 10.5077 96.4957 10.3678 95.3167 10.3678Z" fill="#00B19F"/>
<path d="M110.303 12.6707C110.303 10.2577 111.219 8.34622 113.05 6.93632C114.881 5.52337 118.729 4.81689 121.896 4.81689C125.011 4.81689 128.843 5.54172 130.668 6.99137C132.492 8.44102 133.419 10.4091 133.446 12.8955H126.631C126.632 12.5002 126.546 12.1096 126.379 11.7523C126.212 11.395 125.967 11.0802 125.663 10.8311C124.904 10.2072 122.403 10.0925 121.378 10.0925C120.47 10.0925 118.829 10.2852 118.282 10.666C118.029 10.822 117.819 11.041 117.674 11.302C117.528 11.563 117.451 11.8574 117.45 12.1569C117.45 13.1272 119.216 13.7969 120.926 14.1662L127.544 15.1801C129.831 15.6969 131.49 16.4737 132.521 17.5105C133.553 18.5473 134.068 19.9786 134.068 21.8044C134.068 24.2909 133.084 26.2788 131.115 27.7682C129.15 29.2545 125.208 29.9977 121.985 29.9977C118.688 29.9977 114.715 29.2683 112.825 27.8118C110.935 26.3552 110.803 24.3711 110.649 21.8732H116.996C117.035 22.2824 117.156 22.6792 117.351 23.0399C117.547 23.4006 117.812 23.7177 118.132 23.972C118.986 24.6602 121.476 24.7221 122.571 24.7221C123.566 24.7221 125.12 24.6556 125.826 24.1808C126.086 24.0306 126.302 23.8134 126.452 23.5515C126.601 23.2896 126.68 22.9922 126.678 22.6898C126.684 22.4618 126.635 22.2358 126.536 22.0307C126.437 21.8256 126.291 21.6473 126.11 21.5108C125.731 21.2081 124.184 20.9626 123.287 20.7699L117.132 19.8203C114.888 19.3203 113.187 18.4632 112.03 17.249C110.873 16.0349 110.294 14.5057 110.292 12.6615" fill="#1E3447"/>
<path d="M136.672 29.4265V5.38568H143.942V9.10386H144.089C144.544 7.5441 145.732 6.46145 146.949 5.84902C148.312 5.16089 150.162 4.93152 151.72 4.93152C153.431 4.93152 155.837 5.4155 156.945 6.30777C158.054 7.20004 158.308 7.68402 158.831 9.12679H158.978C159.433 7.5808 160.114 6.64036 161.477 5.84902C163.068 4.93152 164.776 4.93152 166.475 4.93152C168.717 4.93152 171.019 5.67699 172.398 7.18628C173.777 8.69557 174.483 10.6705 174.483 13.1133V29.4265H167.014V15.0997C167.014 12.5537 165.925 11.5169 163.792 11.2806C162.388 11.1247 161.066 11.6339 160.485 12.3403C159.903 13.0468 159.601 13.9873 159.601 15.1662V29.4265H152.465V15.0103C152.393 12.9597 151.484 11.354 148.376 11.2806C147.365 11.2554 146.029 11.354 145.046 12.361C144.391 13.0353 144.137 14.0331 144.137 15.2098V29.4311L136.672 29.4265Z" fill="#1E3447"/>
<path d="M185.847 29.7248C184.431 29.8486 183.004 29.7253 181.628 29.3601C180.463 29.0577 179.378 28.5019 178.448 27.7315C176.903 26.4264 176.215 24.6097 176.215 22.4765C176.215 20.2409 177.008 18.4969 178.593 17.2445C180.179 15.9921 182.467 15.2711 185.456 15.0815L192.647 14.7466V13.3703C192.647 12.4283 192.352 11.6959 191.763 11.1729C191.174 10.6522 190.341 10.2003 188.069 10.2003C187.029 10.2053 186.015 10.5249 185.157 11.1178C184.857 11.3368 184.604 11.615 184.415 11.9356C184.225 12.2562 184.102 12.6125 184.052 12.9827H177.33C177.442 10.4962 178.445 8.51291 180.338 7.03267C182.231 5.55243 184.764 4.81385 187.937 4.8169C190.997 4.8169 194.784 5.56008 196.693 7.00056C198.737 8.54655 199.941 10.5123 199.941 12.9414V29.4312H192.672V26.2635H192.524C191.92 27.4402 190.095 28.5573 188.278 29.2454C187.494 29.5191 186.676 29.6805 185.847 29.7248ZM186.57 24.3918C187.733 24.3918 190.632 23.9583 191.468 23.2816C191.851 22.997 192.16 22.6212 192.365 22.1875C192.571 21.7538 192.668 21.2756 192.647 20.7952V19.1391L186.663 19.4258C185.695 19.4992 184.945 19.7607 184.411 20.2103C184.154 20.4167 183.948 20.6805 183.81 20.9811C183.671 21.2816 183.603 21.6106 183.612 21.9421C183.598 22.2834 183.664 22.6232 183.805 22.934C183.945 23.2448 184.156 23.5179 184.42 23.7312C184.961 24.1716 185.681 24.3918 186.579 24.3918" fill="#1E3447"/>
<path d="M203.201 29.4265V5.38568H210.471V9.0167H210.618C211.468 6.53715 213.286 5.39027 216.007 5.03245C218.729 4.67462 221.698 5.13567 222.216 5.3421L222.145 11.1247C220.101 10.4365 217.863 10.4503 215.557 10.8953C214.166 11.1668 212.895 11.8729 211.922 12.9138C211.096 13.8114 210.682 15.099 210.682 16.7765V29.4265H203.201Z" fill="#1E3447"/>
<path d="M229.133 0H236.605V5.38573H243V11.1476H236.605V21.2402C236.605 22.9054 237.482 23.7373 239.235 23.7358C239.851 23.7358 242.613 23.6991 242.979 23.6257V29.188C242.096 29.3784 238.736 29.4747 237.445 29.4747C234.471 29.4747 232.341 28.9594 231.057 27.9287C229.773 26.8981 229.131 25.1984 229.133 22.8297V11.1476H223.744V5.38573H229.133V0Z" fill="#1E3447"/>
<path d="M0.349609 5.06921L5.65874 10.7715H12.7921L17.7673 5.06921H0.349609Z" fill="#00B19F"/>
<path d="M21.0593 5.06921H28.5085L8.19882 29.3486H0L21.0593 5.06921Z" fill="#00B19F"/>
<path d="M11.2705 29.4266H27.3637L22.9656 23.3573H16.4956L11.2705 29.4266Z" fill="#00B19F"/>
<path d="M52.5823 17.3958C52.5823 13.4965 51.3714 10.6155 49.2541 8.37221C47.1777 6.1725 43.4497 4.86048 39.9262 4.81689H39.7127C36.1892 4.86048 32.4725 6.1725 30.3984 8.37221C28.2789 10.6155 27.0566 13.4965 27.0566 17.3958C27.0566 21.3686 28.3061 24.2771 30.3984 26.4929C32.443 28.6696 35.5576 29.8945 39.7127 29.9931H39.8195H39.9262C44.0813 29.8945 47.1959 28.6696 49.2541 26.4929C51.3419 24.2771 52.5823 21.3686 52.5823 17.3958ZM46.5144 17.3179C46.4053 20.8846 44.7969 22.7082 43.1635 23.6601C42.1421 24.2486 40.9864 24.5581 39.8104 24.5581C38.6343 24.5581 37.4786 24.2486 36.4572 23.6601C34.8329 22.7173 33.2245 20.8846 33.1155 17.3179C33.011 13.9736 34.6512 10.4366 39.4764 10.1132C39.7034 10.0996 39.931 10.0996 40.1579 10.1132C44.9809 10.4251 46.6189 13.9736 46.5144 17.3179Z" fill="#00B19F"/>
</svg>
