<svg width="30" height="30" viewBox="0 0 30 30" fill="none" xmlns="http://www.w3.org/2000/svg">
<path fill-rule="evenodd" clip-rule="evenodd" d="M30 15C30 23.2843 23.2843 30 15 30C6.71573 30 0 23.2843 0 15C0 6.71573 6.71573 0 15 0C23.2843 0 30 6.71573 30 15ZM15.5374 11.073C14.0785 11.6798 11.1626 12.9358 6.78977 14.841C6.0797 15.1233 5.70773 15.3996 5.67387 15.6697C5.61664 16.1262 6.1883 16.3059 6.96675 16.5507C7.07264 16.584 7.18235 16.6185 7.29483 16.6551C8.0607 16.904 9.09094 17.1953 9.62652 17.2068C10.1123 17.2173 10.6546 17.0171 11.2532 16.606C15.3389 13.8481 17.4479 12.4541 17.5803 12.424C17.6737 12.4028 17.8032 12.3762 17.8909 12.4541C17.9786 12.5321 17.9699 12.6797 17.9607 12.7193C17.904 12.9607 15.6601 15.0469 14.4988 16.1265C14.1368 16.4631 13.88 16.7018 13.8275 16.7564C13.7099 16.8785 13.5901 16.994 13.4749 17.1051C12.7634 17.791 12.2298 18.3053 13.5044 19.1453C14.1169 19.5489 14.6071 19.8827 15.0961 20.2157C15.6301 20.5794 16.1627 20.9421 16.8519 21.3939C17.0275 21.509 17.1952 21.6285 17.3585 21.745C17.98 22.188 18.5383 22.5861 19.2281 22.5226C19.629 22.4857 20.043 22.1088 20.2533 20.9848C20.7502 18.3282 21.7269 12.5724 21.9527 10.2005C21.9725 9.99271 21.9476 9.72676 21.9276 9.61002C21.9076 9.49327 21.8659 9.32693 21.7141 9.2038C21.5344 9.05797 21.2569 9.02722 21.1329 9.0294C20.5687 9.03934 19.7031 9.34032 15.5374 11.073Z" fill="#132639"/>
<path fill-rule="evenodd" clip-rule="evenodd" d="M30 15C30 23.2843 23.2843 30 15 30C6.71573 30 0 23.2843 0 15C0 6.71573 6.71573 0 15 0C23.2843 0 30 6.71573 30 15ZM15.5374 11.073C14.0785 11.6798 11.1626 12.9358 6.78977 14.841C6.0797 15.1233 5.70773 15.3996 5.67387 15.6697C5.61664 16.1262 6.1883 16.3059 6.96675 16.5507C7.07264 16.584 7.18235 16.6185 7.29483 16.6551C8.0607 16.904 9.09094 17.1953 9.62652 17.2068C10.1123 17.2173 10.6546 17.0171 11.2532 16.606C15.3389 13.8481 17.4479 12.4541 17.5803 12.424C17.6737 12.4028 17.8032 12.3762 17.8909 12.4541C17.9786 12.5321 17.9699 12.6797 17.9607 12.7193C17.904 12.9607 15.6601 15.0469 14.4988 16.1265C14.1368 16.4631 13.88 16.7018 13.8275 16.7564C13.7099 16.8785 13.5901 16.994 13.4749 17.1051C12.7634 17.791 12.2298 18.3053 13.5044 19.1453C14.1169 19.5489 14.6071 19.8827 15.0961 20.2157C15.6301 20.5794 16.1627 20.9421 16.8519 21.3939C17.0275 21.509 17.1952 21.6285 17.3585 21.745C17.98 22.188 18.5383 22.5861 19.2281 22.5226C19.629 22.4857 20.043 22.1088 20.2533 20.9848C20.7502 18.3282 21.7269 12.5724 21.9527 10.2005C21.9725 9.99271 21.9476 9.72676 21.9276 9.61002C21.9076 9.49327 21.8659 9.32693 21.7141 9.2038C21.5344 9.05797 21.2569 9.02722 21.1329 9.0294C20.5687 9.03934 19.7031 9.34032 15.5374 11.073Z" fill="#132639"/>
</svg>
