<svg width="30" height="30" viewBox="0 0 30 30" fill="none" xmlns="http://www.w3.org/2000/svg">
<path d="M15.0629 0C6.82985 0 0.128354 6.63041 0.124862 14.7797C0.123989 17.3847 0.812038 19.9275 2.11916 22.1688L0 29.8291L7.91868 27.7736C10.1007 28.9512 12.5569 29.5716 15.0568 29.5725H15.0629C23.295 29.5725 29.9965 22.9412 30 14.7918C30.0017 10.8425 28.4493 7.12894 25.629 4.3356C22.8087 1.54139 19.0584 0.00172802 15.0629 0ZM15.0629 27.0763H15.0576C12.8302 27.0763 10.6447 26.4828 8.73858 25.3639L8.28541 25.0977L3.58694 26.3177L4.84079 21.7843L4.54567 21.3194C3.30316 19.3633 2.64654 17.1022 2.64742 14.7815C2.65004 8.00764 8.21992 2.49699 15.0681 2.49699C18.3844 2.49785 21.5015 3.77745 23.8451 6.09991C26.1895 8.4215 27.4792 11.5086 27.4783 14.791C27.4757 21.5648 21.9058 27.0763 15.0629 27.0763ZM21.8726 17.8755C21.4998 17.6906 19.6644 16.7972 19.3221 16.6737C18.9799 16.5501 18.731 16.4888 18.4822 16.8586C18.2333 17.2283 17.5182 18.0604 17.3008 18.3066C17.0834 18.5537 16.8651 18.584 16.4922 18.3991C16.1194 18.2142 14.9162 17.8237 13.4912 16.5657C12.3814 15.5867 11.6322 14.3771 11.4148 14.0073C11.1974 13.6375 11.3912 13.4379 11.579 13.2539C11.7466 13.0889 11.9518 12.8228 12.1387 12.6068C12.3255 12.3908 12.3875 12.237 12.5115 11.9899C12.6355 11.7436 12.5735 11.5276 12.4801 11.3427C12.3866 11.1578 11.6401 9.33994 11.3292 8.60035C11.0263 7.88063 10.7189 7.9774 10.4893 7.96617C10.2718 7.95494 10.023 7.95321 9.77414 7.95321C9.52529 7.95321 9.12102 8.04566 8.77874 8.41545C8.43646 8.78525 7.47249 9.67863 7.47249 11.4965C7.47249 13.3144 8.81017 15.0709 8.99616 15.3172C9.18301 15.5634 11.6279 19.2942 15.372 20.8935C16.2626 21.2736 16.9576 21.5009 17.4999 21.6711C18.394 21.9519 19.2078 21.9121 19.8504 21.8171C20.5673 21.7108 22.0586 20.9237 22.3695 20.0606C22.6803 19.1983 22.6803 18.4587 22.5869 18.304C22.4934 18.1502 22.2446 18.0578 21.8718 17.8729L21.8726 17.8755Z" fill="#132639"/>
</svg>
